# xmcd
#
# Track frame offsets: 
#        182
#        12187
#        23705
#        31770
#        59487
#        77082
#        91787
#        102782
#        118317
#        131887
#        145980
#        159490
#        169917
#        183082
#        196945
#        209535
#        222207
#        233852
#        253612
#        273235
#
# Disc length: 3858 seconds
#
# Revision: 2
# Processed by: cddbd v1.5.2PL0 Copyright (c) Steve Scherf et al.
# Submitted via: ExactAudioCopy v0.99pb3
#
DISCID=140f1014
DTITLE=B.B. King - B.B. King Collection (comp) (1987)
DYEAR=1987
DGENRE=
TTITLE0=Help The Poor
TTITLE1=Every Day (I Have The Blues)
TTITLE2=Woke Up This Mornin'
TTITLE3=Worry, Worry
TTITLE4=Sweet Little Angel
TTITLE5=How Blue Can You Get
TTITLE6=You Upset Me Baby
TTITLE7=It's My Own Fault
TTITLE8=Please Love Me
TTITLE9=She Don't Love Me No More
TTITLE10=Three O'clock Blues
TTITLE11=Fine Looking Woman
TTITLE12=Blind Love
TTITLE13=You Know I Love You
TTITLE14=Ten Long Years
TTITLE15=Mistreated Woman
TTITLE16=Shake It Up And Go
TTITLE17=Sweet Sixteen
TTITLE18=You Done Lost Your Good Thing Now
TTITLE19=Outside Help
EXTD=Live recordings from the Deja Vu series which is compiled from ea
EXTD=rly, and in many cases, historical recordings.
EXTT0=
EXTT1=
EXTT2=
EXTT3=
EXTT4=
EXTT5=
EXTT6=
EXTT7=
EXTT8=
EXTT9=
EXTT10=
EXTT11=
EXTT12=
EXTT13=
EXTT14=
EXTT15=
EXTT16=
EXTT17=
EXTT18=
EXTT19=
PLAYORDER=
